<svg viewBox="0 -2 36 36" id="Lager_112" data-name="Lager 112" xmlns="http://www.w3.org/2000/svg" fill="#ff0c0c" stroke="#6868684e"><g id="SVGRepo_bgCarrier" stroke-width="0"></g><g id="SVGRepo_tracerCarrier" stroke-linecap="round" stroke-linejoin="round"></g><g id="SVGRepo_iconCarrier"> <path id="Path_113" data-name="Path 113" d="M34,0H14a2,2,0,0,0-2,2V8H2a2,2,0,0,0-2,2V30a2,2,0,0,0,2,2H22a2,2,0,0,0,2-2V24H34a2,2,0,0,0,2-2V2A2,2,0,0,0,34,0ZM20,14V27a1,1,0,0,1-1,1H5a1,1,0,0,1-1-1V13a1,1,0,0,1,1-1H19a1,1,0,0,1,1,1ZM32,6V19a1,1,0,0,1-1,1H24V10a2,2,0,0,0-2-2H16V5a1,1,0,0,1,1-1H31a1,1,0,0,1,1,1Z" fill="#ffffff6f"></path> </g></svg>